<?xml version="1.0" standalone="no"?>
<!DOCTYPE svg PUBLIC "-//W3C//DTD SVG 20010904//EN"
 "http://www.w3.org/TR/2001/REC-SVG-20010904/DTD/svg10.dtd">
<svg version="1.0" xmlns="http://www.w3.org/2000/svg"
 width="860.000000pt" height="900.000000pt" viewBox="0 0 860.000000 900.000000"
 preserveAspectRatio="xMidYMid meet">

<g transform="translate(0.000000,900.000000) scale(0.100000,-0.100000)"
fill="#000000" stroke="none">
<path d="M3915 8583 c-22 -2 -114 -15 -204 -29 -869 -134 -1637 -525 -2254
-1148 -540 -545 -898 -1205 -1066 -1966 -73 -332 -75 -361 -75 -845 0 -471 -1
-460 60 -765 113 -565 354 -1119 681 -1568 318 -437 741 -825 1190 -1093 442
-263 889 -424 1457 -526 149 -27 157 -27 596 -27 420 -1 453 1 580 23 477 81
835 197 1230 397 412 208 683 406 1021 743 393 394 659 785 863 1268 155 369
272 842 297 1203 15 208 6 741 -15 875 -142 907 -502 1644 -1105 2259 -288
293 -568 511 -896 698 -480 273 -1106 464 -1625 497 -153 10 -644 12 -735 4z
m1599 -2530 c93 -49 190 -145 244 -243 l42 -75 0 -1134 0 -1133 -37 -71 c-54
-103 -145 -196 -242 -246 l-79 -41 -1140 0 -1140 0 -61 33 c-117 62 -185 131
-253 254 l-38 68 0 1135 0 1135 48 84 c26 47 68 105 93 131 43 43 159 113 218
130 14 5 532 9 1150 9 l1123 1 72 -37z"/>
</g>
</svg>
